<?xml version="1.0" encoding="utf-8"?>
<!-- Generator: Adobe Illustrator 23.0.3, SVG Export Plug-In . SVG Version: 6.00 Build 0)  -->
<svg version="1.1" id="Capa_1" xmlns="http://www.w3.org/2000/svg" xmlns:xlink="http://www.w3.org/1999/xlink" x="0px" y="0px"
	 viewBox="0 0 1200 1200" enable-background="new 0 0 1200 1200" xml:space="preserve">
<g>
	<path fill="#850606" d="M986.37,476.052c-0.029,0.172-0.038,0.347-0.064,0.52c3.342-2.078,6.62-4.182,9.818-6.317
		c2.296-7.5,6.366-14.025,12.192-19.615c5.542-5.318,13.266-7.679,18.598-12.995c2.164-2.157,3.673-4.853,4.789-7.82
		c-0.025,2.845-0.192,5.655-0.599,8.408c-3.728,5.193-7.624,10.265-11.79,15.144c92.099-73.027,114.311-167.347,118.682-192.171
		c-2.123-0.001-4.237-0.079-6.355-0.127c-2.8,1.618-5.155,4.108-7.142,7.389c-2.063,3.406-2.825,7.33-3.724,11.132
		c-1.461,6.179-3.982,10.655-7.508,15.411c-2.828,2.288-5.821,4.18-9.008,5.785c-0.629-0.026-1.262-0.06-1.896-0.102
		c-4.476-1.68-8.426-5.301-12.005-9.19c-0.637-1.021-1.31-2.007-2.014-2.962c-0.163-0.38-0.302-0.727-0.484-1.132
		c-0.957-2.132-0.999-2.699-2.585-4.395c-3.258-3.486-7.876-5.813-11.427-9.181c-2.672-4.311-5.343-8.622-8.015-12.933
		c0.526-0.372,1.058-0.73,1.61-1.041c4.304-2.427,8.918-3.348,13.824-3.263c0.713,0.012,1.329-0.123,1.864-0.353
		c-16.751-2.916-32.98-6.963-48.421-11.655c-0.677-0.144-1.339-0.336-1.999-0.605c-6.084-1.879-12.027-3.855-17.833-5.905
		c2.735,4.673,6.17,8.814,10.559,12.089c2.063,1.539,4.374,3.122,6.893,3.91c0.683,9.95,3.108,21.368,10.955,27.475
		c4.058,3.158,6.856,2.704,8.936,0.61c1.249-0.582,2.003-1.904,2.411-3.655c0.032-0.065,0.067-0.124,0.098-0.19
		c0.16-0.127,0.302-0.29,0.376-0.534c0.772-2.539,2.212-4.695,4.098-6.426c1.064,1.939,2.308,3.804,3.66,5.614
		c-1.448,4.24-2.432,8.612-2.666,13.182c-0.159,3.08,0.203,6.025,0.742,8.924c0.306,3.178,0.739,6.33,1.166,9.335
		c-2.553,1.986-4.753,4.297-6.514,6.928c-3.396,0.862-6.909,1.057-10.413,0.035c-3.672-1.071-6.497-4.688-10.139-5.425
		c-0.099-0.038-0.192-0.034-0.296-0.045c-4.115-0.717-6.249,1.012-7.41,4.866c-1.439,4.775,1.147,11.363,3.835,15.217
		c0.224,0.321,0.478,0.608,0.715,0.913c0.411,0.768,0.863,1.519,1.367,2.252c0.391,0.834,0.812,1.657,1.252,2.475
		c0.047,0.166,0.119,0.307,0.223,0.421c4.203,7.691,10.004,14.766,10.084,22.502c-0.281,0.82-0.535,1.646-0.758,2.477
		c-2.774,1.597-5.837,2.16-9.507,3.232c-1.276,0.373-2.537,0.75-3.776,1.158c1.705-2.053,2.448-4.916,0.258-6.788
		c-1.858-1.588-4.119,0.017-5.673,1.201c-1.722,1.311-3.487,2.978-3.771,5.241c-0.191,1.522,0.401,2.963,1.346,3.946
		c-0.619,0.407-1.23,0.837-1.823,1.317c-1.403,1.137-2.516,2.352-3.436,3.619c-3.192,2.444-5.707,5.616-7.196,9.536
		c-1.807,4.759-1.457,9.883-1.938,14.783c-1.954,3.447-4.358,6.546-7.563,9.694c-3.047,2.993-6.151,6.089-7.484,10.282
		c-0.118,0.372-0.21,0.77-0.288,1.179c-1.071,1.987-1.512,4.202-0.64,6.7c1.227,3.51,4.13,5.322,7.889,4.559
		c2.433-0.494,5.64-2.063,8.609-3.898c17.001-7.462,20.132-30.826,26.604-47.988c0.086,1.684,0.181,3.367,0.259,5.046
		c-0.315,2.561-0.551,5.123-0.832,7.53c-2.171,4.996-3.377,10.287-3.552,16.067c-0.017,0.223-0.034,0.447-0.048,0.67
		c-2.838,6.913-6.988,12.917-11.723,18.508c-5.599,5.01-12.642,7.859-18.068,12.979c-0.111,0.001-0.224-0.008-0.335-0.005
		c-4.836-0.265-9.649-0.088-14.44,0.804c-6.29,1.171-13.337,5.404-19.888,4.866c7.559,17.375,11.764,28.003,13.917,34.64
		c1.74-1.04,3.39-2.117,5.092-3.174C986.153,476.508,986.264,476.279,986.37,476.052z M1087.027,294.004
		c0.012,0.014,0.023,0.028,0.034,0.043c0.057,0.147,0.111,0.291,0.17,0.44c-0.098-0.191-0.198-0.387-0.296-0.58
		C1086.966,293.939,1086.997,293.972,1087.027,294.004z M1050.105,257.133c-0.578,1.494-1.209,2.967-1.954,4.39
		c-0.042,0.081-0.105,0.116-0.153,0.187c-0.307,1.059-1.029,1.948-2.181,2.253c-2.529,0.669-3.498-1.543-3.81-3.898
		c-0.458-1.568-0.621-3.2-0.44-4.835c0.057-0.516,0.256-0.981,0.543-1.366c-0.163-0.592-0.207-1.193-0.047-1.769
		c0.127-0.187,0.23-0.387,0.367-0.568c0.395-0.524,0.918-1.167,1.518-1.648c0.154-0.067,0.31-0.129,0.471-0.158
		c0.386-0.237,0.819-0.377,1.272-0.464c0.82,0.044,1.703,0.354,2.566,0.563c0.801,0.589,1.488,1.306,1.872,2.192
		C1050.463,253.824,1050.425,255.488,1050.105,257.133z M1066.063,281.066c0.842,1.041,1.683,2.077,2.503,3.109
		c4.498,5.662,9.276,11.056,14.275,16.244c-4.327,0.542-8.59,1.471-12.633,3.206c-0.916,0.393-1.78,0.852-2.65,1.304
		C1067.755,297.181,1064.766,288.798,1066.063,281.066z M1042.616,377.865c0.004,0.111,0.013,0.222,0.017,0.333
		c-0.076,0.096-0.15,0.193-0.226,0.29C1042.478,378.281,1042.546,378.073,1042.616,377.865z M1038.226,403.335
		c0.255-1.159,0.559-2.302,0.852-3.449c-0.417,1.723-0.733,3.122-0.908,3.833c-0.004,0.017-0.007,0.035-0.012,0.052
		C1038.178,403.625,1038.207,403.481,1038.226,403.335z M1040.33,404.314c0.906-3.691,2.363-7.226,3.747-10.771
		c0.354,3.311,0.66,6.598,0.79,9.831c-0.3,1.604-0.599,3.207-0.937,4.798c-1.021,2.564-1.995,5.151-2.958,7.742
		c-0.963,2.116-1.801,4.31-2.483,6.606c-0.151,0.394-0.303,0.788-0.456,1.181C1038.035,417.221,1038.741,410.778,1040.33,404.314z
		 M1037.49,406.108c0.105-0.153,0.188-0.327,0.208-0.548c0-0.005,0.001-0.01,0.001-0.015c0.017-0.052,0.05-0.087,0.061-0.146
		c0.012-0.054,0.026-0.107,0.036-0.162c0.017-0.024,0.042-0.04,0.058-0.065c-0.156,0.686-0.312,1.372-0.447,2.059
		C1037.434,406.856,1037.46,406.481,1037.49,406.108z M1035.484,429.553c0.006,0.089,0.01,0.177,0.015,0.266
		c-0.01,0.023-0.019,0.045-0.029,0.068C1035.474,429.776,1035.481,429.665,1035.484,429.553z M1031.341,414.352
		c0,0.02,0,0.039,0,0.059c-0.042,0.065-0.086,0.129-0.128,0.193C1031.255,414.519,1031.298,414.436,1031.341,414.352z
		 M1019.443,439.96c0.035-0.019,0.071-0.038,0.108-0.057c-0.047,0.03-0.093,0.06-0.14,0.09
		C1019.421,439.982,1019.433,439.972,1019.443,439.96z M988.956,467.489c-0.066,0.046-0.135,0.086-0.192,0.154
		c0.083-0.099,0.168-0.195,0.249-0.294C988.994,467.396,988.976,467.443,988.956,467.489z M977.322,452.555
		c0.068-0.058,0.127-0.122,0.194-0.179c0.035-0.028,0.068-0.054,0.102-0.082c0.479-0.402,0.979-0.792,1.489-1.17
		c5.532-4.038,11.544-5.603,18.276-6.397c-2.531,3.357-4.897,6.875-7.155,10.481c-2.641,1.411-5.229,2.839-7.361,4.544
		C981.469,457.008,979.598,454.57,977.322,452.555z M985.366,468.543c0.019-0.003,0.039-0.001,0.058-0.005
		c-0.019,0.031-0.039,0.062-0.058,0.094C985.365,468.603,985.367,468.573,985.366,468.543z M978.845,493.714
		c-0.028,0.536-0.057,1.071-0.085,1.607c-1.482,6.673-3.166,13.481-4.186,20.311c-0.487,2.379-1.007,4.751-1.461,7.135
		c-1.129,5.922-3.096,14.935,0.562,20.422c3.331,4.997,6.151,3.651,8.273,0.277c0.986-1.004,1.715-2.725,2.245-4.89
		c0.552-1.596,0.998-3.212,1.326-4.677c0.109-0.164,0.185-0.353,0.169-0.591c-0.003-0.051-0.003-0.101-0.007-0.151
		c0.039-0.191,0.076-0.372,0.111-0.555c0.599-2.248,0.989-4.622,1.257-7.151c1.415-13.366,2.685-25.238,7.551-37.102
		c0.523-0.556,1.046-1.126,1.607-1.718c3.707-3.904,7.722-5.656,12.983-7.07c7.181-1.931,12.504-6.633,13.918-13.368
		c0.414-0.657,0.635-1.425,0.695-2.207c-13.124,10.23-27.575,20.035-43.527,29.165C979.818,493.413,979.336,493.593,978.845,493.714
		z M978.62,532.297c-0.058-0.029-0.12-0.059-0.179-0.088c0.031-0.347,0.064-0.704,0.101-1.072c0.02,0.299,0.034,0.6,0.098,0.886
		C978.635,532.115,978.625,532.206,978.62,532.297z M978.89,527.865c0.073-0.624,0.144-1.222,0.213-1.771
		c0.061,0.282,0.137,0.562,0.192,0.845C979.124,527.213,978.995,527.533,978.89,527.865z M990.467,487.9
		c0.019,0.021,0.035,0.046,0.054,0.066c-0.031,0.013-0.05,0.039-0.08,0.052C990.442,487.978,990.47,487.941,990.467,487.9z
		 M986.874,503.374c0.031,0.049,0.063,0.097,0.101,0.141c-0.103,0.483-0.223,0.959-0.318,1.447
		c-0.028,0.143-0.039,0.289-0.066,0.433C986.682,504.721,986.773,504.047,986.874,503.374z M985.513,517.432
		c-0.022,0.487-0.045,0.973-0.068,1.46c-0.001-0.087-0.004-0.177-0.006-0.263C985.453,518.228,985.496,517.832,985.513,517.432z
		 M950.099,396.035c-0.293-0.728-0.663-1.398-1.059-2.048c-1.794-4.677-5.264-7.538-7.174-11.548
		c0.747-6.264,1.345-12.542-0.645-18.433c-3.688-10.911-15.097-17.239-23.083-24.63c-13.446-12.443-24.716-26.957-39.762-36.875
		c14.154,12.995,28.852,31.679,44.046,56.157c10.299,16.592,19.529,33.753,27.357,49.494
		C952.045,404.427,951.983,400.721,950.099,396.035z M969.076,418.754c0.635,2.011,1.483,4.001,1.843,5.668
		c0.822,3.8-0.154,8.255,2.098,11.588c0.656,0.972,1.954,0.527,2.085-0.565c0.096-0.81,0.153-1.611,0.182-2.409
		c0.039-0.147,0.085-0.294,0.121-0.442c0.009-0.032,0.038-0.035,0.045-0.069c1.302-5.91,5.091-15.012,1.935-20.88
		c-0.723-1.342-2.215-2.188-3.548-2.277c-0.227-0.134-0.423-0.294-0.68-0.399c-2.901-1.186-6.175,1.2-5.239,4.373
		c0.068,0.232,0.197,0.389,0.344,0.515C967.925,415.641,968.349,417.232,969.076,418.754z M777.053,132.708
		c-1.265,1.596-2.845,2.747-4.559,3.472c-3.197,2.63-6.95,4.477-10.382,1.228c-0.954-0.902-1.259-2.156-1.727-3.336
		c-0.973-0.94-1.808-2.087-2.417-3.463c-0.137-0.308-0.184-0.619-0.29-0.928c-1.928-2.296-2.225-7.129-2.089-10.837
		c-0.192-2.614,0.093-5.212,0.991-7.764c0.02-0.102,0.042-0.206,0.064-0.31c0.632-4.182,1.826-8.895,4.945-11.719
		c0.58-0.525,1.316-0.366,1.757,0.226c1.699,2.28,1.818,5.151,2.742,7.824c0.208,0.345,0.411,0.695,0.679,0.989
		c1.272,1.401,2.414,1.249,4.091,1.548c1.02,0.182,1.869,0.601,2.574,1.177c0.523-0.029,1.053-0.002,1.59,0.075
		c0.219-0.2,0.597-0.307,1.496-0.125c2.644,0.533,2.86,2.444,3.045,4.888c0.226,3,0.268,6.89-0.444,10.411
		c0.004,0.129,0.023,0.256,0.023,0.386c0.003,1.945-0.702,3.945-1.855,5.646C777.266,132.304,777.208,132.513,777.053,132.708z
		 M789.923,151.658c-0.035,0.388-0.137,0.777-0.288,1.148c0.153,1.308,0.015,2.54-0.605,3.507c-0.213,0.872-0.624,1.67-1.41,2.25
		c-0.924,0.681-2.111,0.808-2.905-0.093c-1.521-1.728-0.864-4.255-0.15-6.711c-0.015-1.618,0.086-3.238,0.28-4.868
		c-0.061-0.305-0.023-0.567,0.087-0.775c0.016-0.116,0.022-0.231,0.039-0.347c0.141-0.959,1.635-1.069,2.044-0.267
		c0.029,0.055,0.064,0.106,0.093,0.16c0.235,0.119,0.414,0.346,0.462,0.709c0.003,0.022,0.001,0.042,0.004,0.064
		C788.662,148.071,790.111,149.535,789.923,151.658z M761.56,188.573c0.347,2.494,0.354,4.992-0.007,7.04
		c-0.278,1.575-2.726,2.257-3.74,0.987c-0.322-0.401-0.64-0.771-0.868-1.187c-0.839-0.268-1.473-0.826-1.973-1.576
		c-2.167-0.341-2.542-2.704-2.797-4.573c-0.019-0.138-0.048-0.275-0.067-0.413c-0.27-0.204-0.522-0.441-0.72-0.746
		c-1.243-1.915-1.256-4.927-1.399-7.133c-0.051-0.791-0.017-1.539,0.071-2.268c-0.172-2.322,0.079-4.663,1.44-6.137
		c1.729-1.874,4.495-1.475,6.306,0.083c0.797,0.684,1.292,1.488,1.59,2.356C761.656,178.357,761.698,184.009,761.56,188.573z
		 M786.518,207.205c0.007,0.253,0.058,0.499,0.034,0.758c-0.045,0.471-0.179,0.996-0.354,1.532
		c-0.041,0.132-0.082,0.264-0.128,0.395c-0.028,0.072-0.055,0.143-0.084,0.215c-0.306,0.797-0.715,1.587-1.218,2.391
		c-0.24,0.384-0.546,0.617-0.873,0.786c-0.72,0.695-1.536,1.205-2.416,1.313c-0.377,0.046-0.787-0.245-0.967-0.554
		c-0.063-0.108-0.101-0.215-0.154-0.323c-0.061-0.032-0.12-0.042-0.179-0.078c-1.196-0.718-1.904-2.063-2.28-3.5
		c-0.959-1.777-1.544-3.919-1.747-5.237c-0.233-1.521,0.064-2.816,0.561-4.033c0.048-0.971,0.214-1.961,0.507-2.945
		c0.599-3.147,2.303-5.794,3.197-8.957c0.351-1.24,2.158-0.949,2.199,0.298c0.001,0.044,0.022,0.08,0.025,0.123
		c0.197,0.18,0.332,0.436,0.338,0.779c0.001,0.18,0.02,0.357,0.025,0.537c0.373,0.836,0.89,1.604,0.992,2.523
		c0.009,0.071,0.003,0.13,0.009,0.199c0.176,0.305,0.299,0.648,0.274,1.065c-0.098,1.559-0.226,3.177-0.086,4.754
		c0.182,0.683,0.363,1.366,0.592,2.044c0.6,1.783,1.515,3.545,1.715,5.43C786.51,206.883,786.513,207.044,786.518,207.205z
		 M811.83,120.918c-0.042-0.327-0.187-0.574-0.377-0.753c0.01-0.046,0.013-0.093,0.023-0.139c0.233-1.409-1.923-2.015-2.159-0.595
		c-0.351,2.118-0.712,5.651-0.15,8.575c-0.233,0.31-0.315,0.726-0.058,1.164c0.659,1.121,1.198,2.279,1.681,3.456
		c0.092,0.842,0.175,1.704,0.245,2.655c0.109,1.5,0.61,2.383,1.305,3.678c0.093,0.176,0.156,0.353,0.242,0.53
		c0.189,0.847,0.433,1.805,0.73,2.753c0.329,2.353,0.446,4.849,3.176,5.362c0.462,0.087,0.828-0.105,1.081-0.386
		c0.237,0.032,0.479,0.016,0.669-0.125c2.64-1.957,1.508-6.049,0.578-8.704C816.761,132.529,812.64,127.157,811.83,120.918z
		 M742.214,127.977c1.228,2.039,5.191,10.441,1.716,11.925c-0.275,1.578-1.087,2.504-2.956,1.496
		c-0.573-0.309-0.931-0.842-1.215-1.435c-1.808-2.205-2.114-5.381-0.654-7.841c0.213-1.319,0.565-2.616,1.064-3.878
		C740.51,127.379,741.68,127.09,742.214,127.977z M772.999,93.836c-0.491,1.772-0.577,3.605,0.197,5.166
		c1.238,2.504,3.583,2.114,4.563,0.152c0.535-0.156,0.983-0.547,1.235-1.147c1.41-3.354-1.128-7.378-1.145-10.782
		c-0.001-0.377-0.195-0.658-0.458-0.846c0.032-0.084,0.05-0.17,0.082-0.254c0.519-1.345-1.645-1.927-2.158-0.595
		c-0.194,0.502-0.325,1.012-0.487,1.518c-0.14,0.055-0.278,0.144-0.406,0.279c-1.552,1.65-2.124,3.682-1.775,5.905
		C772.693,93.52,772.83,93.705,772.999,93.836z M762.076,88.766c0.995-1.614,1.211-3.178,1.983-4.841
		c1.403-3.018,2.981-4.482,4.619-6.965c1.037-1.572,1.594-3.098,1.764-4.67l-2.771-2.316l-9.896,13.37
		c-0.051,0.095-0.089,0.197-0.141,0.291c-0.016-0.012-0.038-0.015-0.055-0.026l-12.026,16.249
		C751.979,97.834,758.599,94.407,762.076,88.766z M718.598,162.995c2.031-1.306,4.349-8.636,5.519-10.756
		c2.063-3.741,3.876-7.291,4.512-11.539c0.306-2.032-0.189-4.419,0.188-6.41c0.431-2.266,1.888-4.312,2.491-6.493
		c0.846-3.056,0.647-6.256,0.562-9.454l-2.289,3.093c-0.003,0.048-0.001,0.099-0.003,0.148c-0.016-0.025-0.045-0.036-0.064-0.059
		l-15.658,21.157C712.346,152.488,712.163,167.134,718.598,162.995z"/>
	<path d="M1149.97,256.166c0.166-1.585-0.359-3.165-1.437-4.336s-2.596-1.815-4.205-1.783c-2.098,0.047-4.181,0.073-6.274,0.073
		c-115.132,0-223.458-72.636-228.723-76.22L770.267,57.695c-1.174-0.982-2.698-1.434-4.211-1.25c-1.518,0.181-2.894,0.979-3.8,2.206
		l-89.665,121.144c-0.886,1.195-1.253,2.695-1.023,4.161c0.233,1.469,1.043,2.783,2.252,3.648
		c16.569,11.85,35.735,25.6,54.558,39.153c-21.594,47.611-93.54,136.271-146.355,201.34c-19.273,23.749-35.92,44.26-46.27,58.075
		c-86.325,115.226-177.791,219.737-271.855,310.631c-102.075,98.634-212.198,288.992-213.3,290.904
		c-0.83,1.44-0.793,3.217,0.093,4.622c1.177,1.862,29.154,45.658,59.674,50.545c3.127,0.498,6.387,0.723,9.727,0.723
		c28.644,0,62.944-16.507,64.552-17.291c1.539-0.749,2.518-2.311,2.518-4.024c0-0.941,0.574-94.971,46.323-159.975
		c0.912-1.002,2.124-2.631,4.088-5.274c44.813-60.237,109.025-132.596,190.848-215.072
		c112.127-113.016,308.782-341.771,373.241-461.984c8.121,6.008,13.579,10.146,15.087,11.499c0.312,0.396,0.682,0.749,1.101,1.052
		c1.454,1.043,3.319,1.317,5.009,0.749c9.861-3.334,20.307-1.62,31.934,5.201c57.384,33.673,113.926,175.331,117.187,189.965
		c0.02,1.148,0.396,2.293,1.136,3.264c1.084,1.416,2.73,2.18,4.409,2.18c0.441,0,0.883-0.063,1.319-0.17
		c0.491-0.121,0.973-0.301,1.432-0.564c15.952-9.13,30.403-18.935,43.527-29.165C1136.038,376.498,1149.831,257.496,1149.97,256.166
		z M967.036,445.269c-0.223-0.513-0.439-1.011-0.667-1.536c-4.378-10.033-9.987-22.304-16.59-35.581
		c-7.828-15.741-17.058-32.902-27.357-49.494c-15.193-24.478-29.891-43.162-44.046-56.157
		c-15.882-14.583-31.08-21.983-45.485-21.983c-3.564,0-7.081,0.449-10.546,1.346c-6.807-5.848-24.427-18.597-70.033-51.518
		c-28.323-20.444-56.644-40.74-67.455-48.482l29.001-39.182l15.658-21.157l0.067-0.089l2.289-3.093l13.681-18.484l12.026-16.249
		l0.197-0.265l9.896-13.37l2.771,2.316l131.984,110.287c0.125,0.105,0.256,0.207,0.393,0.3c0.733,0.51,47.133,32.284,112.06,55.203
		c5.806,2.049,11.749,4.026,17.833,5.905c0.663,0.205,1.333,0.403,1.999,0.605c15.441,4.692,31.67,8.739,48.421,11.655
		c15.814,2.753,32.072,4.466,48.51,4.834c2.119,0.048,4.233,0.126,6.355,0.127c-4.371,24.824-26.582,119.144-118.682,192.171
		c-7.283,5.776-15.005,11.414-23.191,16.878c-3.198,2.136-6.476,4.239-9.818,6.317c-0.087,0.054-0.173,0.109-0.261,0.163
		c-1.702,1.056-3.352,2.134-5.092,3.174C978.799,473.272,974.595,462.644,967.036,445.269z"/>
</g>
</svg>
