<?xml version="1.0" encoding="utf-8"?>
<!-- Generator: Adobe Illustrator 23.0.3, SVG Export Plug-In . SVG Version: 6.00 Build 0)  -->
<svg version="1.1" id="Capa_1" xmlns="http://www.w3.org/2000/svg" xmlns:xlink="http://www.w3.org/1999/xlink" x="0px" y="0px"
	 viewBox="0 0 1200 1200" enable-background="new 0 0 1200 1200" xml:space="preserve">
<g>
	<path fill="#8E1616" d="M920.151,214.168c-0.821-0.75-1.209-1.595-1.292-2.432c33.805-27.912,65.009-52.656,92.251-73.695
		c0.119,0.04,0.245,0.055,0.36,0.104c0.146-0.255,0.314-0.497,0.47-0.746c47.956-37.015,83.528-62.49,99.248-73.552
		c-1.98,8.212-4.172,16.454-6.519,24.713c-3.974-0.689-6.523-5.952-5.442-10.302c0.089-0.357,0.24-0.675,0.363-1.012
		c-6.965,4.597-13.932,9.195-20.939,13.727c-2.029,1.312-4.136,2.509-6.26,3.684c-0.44,1.386-0.862,3.039-1.339,5.121
		c-3.118,13.608-1.711,6.107,1.422,14.68c0.879,2.406,1.467,4.313,0.867,6.896c-0.778,3.356-3.018,5.712-5.774,7.337
		c-1.557,1.709-3.853,2.852-6.717,3.337c-0.953,0.161-1.916,0.294-2.885,0.406c-0.51,0.078-1.025,0.121-1.547,0.145
		c-2.829,0.259-5.706,0.366-8.588,0.414c-1.091,0.411-2.169,0.912-3.218,1.665c-1.782,1.28-1.831,3.459-4.21,4.684
		c-3.258,1.678-5.967-0.116-9.166,0.709c-0.026,0.007-0.052,0.031-0.078,0.039c-3.636,5.339-2.391,14.736-0.511,20.205
		c1.916,5.57,6.379,7.376,10.994,9.512c0.537-0.132,1.103-0.19,1.731-0.039c6.786,1.637,8.559,6.564,11.137,12.567
		c0.322,0.768,0.645,1.536,0.967,2.304c5.268,3.59,12.542-0.333,15.526-6.752c1.286-2.764,2.296-5.692,3.226-8.656
		c0.038-4.308,0.491-8.307,2.154-12.398c0.157-0.387,0.361-0.747,0.532-1.126c0.503-2.227,1.066-4.435,1.719-6.611
		c1.692-5.636,4.226-10.088,9.936-12.191c0.178-0.066,0.344-0.09,0.514-0.132c-7.993,22.17-17.097,44.404-27.148,66.592
		c-1.855-0.102-3.744-0.691-5.592-1.805c-2.623-1.581-4.371-3.973-5.91-6.563c-3.858-6.492-4.434-9.53-12.621-12.739
		c-1.403-0.55-2.731-1.091-4.022-1.645c-5.094,0.821-5.486,8.604-4.858,12.707c0.63,4.116,2.424,6.941,4.704,10.295
		c3.32,4.881,5.095,9.4,3.52,15.222c-0.626,2.316-2.939,3.362-5.152,2.925c-8.254-1.63-8.666-11.212-11.255-18.519
		c-2.952-1.733-5.778-2.987-8.516-3.176c-2.52,2.715-2.07,8.961-3.677,11.88c-1.594,2.894-4.491,5.174-5.533,7.911
		c0.404,2.227,1.1,4.387,2.11,6.487c1.283,0.719,2.138,2.097,2.207,3.657c0.016,0.379-0.048,0.743-0.144,1.096
		c0.005,0.72-0.199,1.389-0.57,1.971c0.451,2.043-0.871,4.526-2.927,5.283c-12.006,4.419,13.823,30.672,16.442,33.985
		c1.759,2.225,2.909,4.78,3.565,7.471c-5.362,9.84-10.856,19.646-16.487,29.404c-1.44-0.173-2.969-0.59-4.59-1.291
		c-5.644-2.444-10.739-6.139-15.65-9.991c-12.997,0.153-21.612,9.724-23.622,23.409c-0.517,3.521-0.222,6.97-2.192,10.159
		c-1.014,1.643-2.86,2.577-3.966,4.051c-1.237,1.648-1.963,3.538-2.604,5.489c0.065,1.84,0.169,3.745,0.274,5.79
		c0.097,1.888,0.345,3.846-0.04,5.729c-0.654,3.216-2.712,4.867-3.764,7.729c-2.905,7.896-3.632,15.131,0.777,22.123
		c0.255,0.152,0.502,0.324,0.732,0.524c0.885,0.773,1.77,1.545,2.654,2.317c0.294,0.257,0.513,0.565,0.697,0.891
		c0.818,0.379,1.636,0.757,2.453,1.136c0.17,0.079,0.307,0.199,0.457,0.304c-1.729,2.636-3.47,5.261-5.211,7.885
		c-0.186-0.041-0.369-0.034-0.556-0.094c-1.406-0.455-2.406-1.471-2.825-2.733c-0.476-0.306-0.851-0.721-1.123-1.21
		c-10.536-2.205-19.296-8.101-22.778-18.466c-0.32-0.956-0.353-1.472-0.278-1.815c-0.913-2.051-1.812-4.454-2.198-6.859
		c-0.912-0.869-2.348-1.572-2.717-2.77c-1.639-5.297,0.635-9.518,0.616-14.526c-0.264-0.695-0.547-1.383-0.893-2.041
		c-2.12-4.016-5.182-5.315-9.173-7.023c-2.558-1.095-4.783-2.382-6.196-4.341c-2.285-1.531-4.438-3.049-6.389-4.308
		c-0.961-0.621-1.508-1.442-1.76-2.316c-0.376-0.179-0.728-0.354-1.025-0.524c-3.044-1.74-2.541-6.844,1.001-7.655
		c2.119-0.485,3.393-0.548,4.619-0.097c0.629-0.421,1.448-0.638,2.461-0.533c0.519,0.054,1.009,0.137,1.489,0.229
		c0.135-0.031,0.278-0.07,0.409-0.097c0.256-0.052,0.472,0,0.663,0.091c3.74,0.059,7.204,1.788,10.63,3.699
		c1.434,0.561,2.854,1.168,4.244,1.872c0.342,0.174,0.491,0.435,0.521,0.708c1.044,0.519,2.098,0.979,3.166,1.348
		c0.799,0.078,1.603,0.133,2.409,0.176c0.333-0.037,0.668-0.064,1.009-0.078c4.62-0.185,8.032-1.488,9.203-6.48
		c0.706-3.012,3.658-3.554,5.819-2.487c0.087-0.134,0.187-0.292,0.262-0.408c4.068-6.269,1.467-13.053,6.325-18.922
		c1.699-2.052,4.689-2.828,6.4-4.711c1.117-1.229,1.899-2.239,2.461-3.113c-0.048-0.779,0.117-1.56,0.575-2.223
		c0.207-0.299,0.453-0.566,0.664-0.86c0.229-1.929-0.633-3.413,0.247-6.686c0.354-1.319,0.819-2.579,1.357-3.799
		c-0.96-1.426-1.841-2.916-2.521-4.566c-4.488-10.908-1.261-20.479-9.628-30.239C941.512,231.572,929.917,223.087,920.151,214.168z
		 M933.441,424.007c-1.207,1.272-2.412,2.543-3.618,3.815c-0.112,0.056-0.221,0.132-0.322,0.248
		c-1.924,2.238-5.818,0.301-7.53,3.279c-0.659,1.146-0.579,2.513-0.515,3.778c0.041,0.815,0.046,1.584-0.004,2.323
		c-1.061,2.429-2.218,4.819-3.553,7.084c-1.02,1.554-2.128,3.049-3.288,4.511c-5.064,2.832-9.822,4.915-13.117,10.083
		c-2.292,3.594-2.682,8.124-5.884,10.837c-1.502,1.272-3.629,1.079-5.197,2.611c-2.854,2.786-3.17,6.362-3.118,10.103
		c-2.813,7.078-8.655,12.403-14.266,17.518c-6.48,5.906-13.422,11.208-20.696,16.085c-6.398,3.029-13.122,3.652-20.635,2.935
		c-1.37-0.131-2.667,1.071-3.029,2.306c-4.629,15.803-29.254-11.115-34.402-13.465c-4.417-2.017-8.655-2.502-13.376-1.227
		c-11.654,3.146-15.551,14.068-14.411,25.09c0.823,7.97,4.409,15.715,4.042,23.831c-0.399,8.842-6.456,15.669-7.563,24.243
		c-1.288,9.984,2.592,19.38,1.245,29.643c-0.117,0.899-0.169,1.919-0.198,2.987c-0.539,2.883-1.181,5.786-2.162,8.667
		c-2.773,8.139-11.092,11.946-13.508,19.728c-0.751,2.421-0.056,4.995-0.267,7.411c-0.672,7.678-3.104,12.975-7.317,19.103
		c-0.121,0.178-0.211,0.354-0.291,0.529c23.523-26.275,49.14-55.862,75.623-88.036c0.492-0.842,0.997-1.674,1.483-2.521
		c1.042-1.052,2.097-2.094,3.153-3.135c35.051-42.822,71.459-90.055,106.416-140.034c0.245-0.532,0.494-1.061,0.77-1.583
		c0.102-0.047,0.206-0.096,0.303-0.184c0.15-0.137,0.301-0.274,0.451-0.411c1.945-2.789,3.886-5.587,5.821-8.393
		C934.148,423.635,933.763,423.667,933.441,424.007z M902.164,443.032c2.487-0.463,4.33-1.862,5.488-3.651
		c0.053-0.064,0.116-0.11,0.168-0.177c1.522-2.011,1.886-4.699,0.909-6.826c-0.485-1.722-1.55-3.274-3.233-4.354
		c-0.14-0.13-0.263-0.274-0.413-0.394c-3.051-2.431-7.289-2.035-10.101,0.591C889.093,433.721,894.006,444.552,902.164,443.032z
		 M987.144,314.402c-0.957-2.102-3.156-3.478-5.437-3.702c-1.436-0.503-3.078-0.496-4.53,0.041
		c-3.226,1.193-4.622,4.684-3.448,7.872c0.47,1.276,1.29,2.298,2.311,3.026c-0.539,1.623-0.958,3.278-1.192,4.996
		c-0.251,1.862-0.889,4.965,0.555,6.544c1.117,1.222,2.729,1.011,3.936,0.018c0.502-0.413,0.828-0.903,1.068-1.43
		c0.919-0.485,1.346-1.216,1.504-2.07c0.082-0.012,0.154-0.003,0.239-0.023c0.354-0.082,0.633-0.39,0.731-0.731
		c0.087-0.301,0.108-0.603,0.173-0.905c0.278-0.328,0.511-0.684,0.688-1.075c1.541-1.963,2.563-4.198,2.558-6.78
		c0.423-0.504,0.761-1.065,0.994-1.677c0.627-0.287,0.629-0.905,0.315-1.359C987.691,316.276,987.576,315.353,987.144,314.402z
		 M791.525,348.512c5.283-0.646,10.757,1.058,15.769-1.574c4.109-2.158,6.356-5.656,8.936-8.739
		c3.486-0.384,6.961-0.093,10.469,1.336c4.8,5.003,12.386,8.555,17.44,11.802c0.544,0.349,1.136,0.433,1.715,0.381
		c1.331,0.517,2.732,0.968,4.288,1.294c0.839,0.176,1.711-0.724,1.183-1.538c-0.708-1.089-1.554-2.261-2.449-3.484
		c-0.078-0.321-0.214-0.642-0.439-0.95c-0.873-1.198-1.767-2.311-2.682-3.387c-3.82-5.544-6.979-11.73-3.845-17.247
		c0.323-0.219,0.678-0.421,1.069-0.603c0.89-1.754,1.197-0.559,2.151-3.492c0.934-2.869,0.063-5.277-0.848-8.058
		c-0.117-0.358-0.285-0.682-0.427-1.025c0.045-0.49,0.035-1.016,0.004-1.556c0.77-2.471,2.693-4.828,3.575-7.091
		c1.096-2.816,1.478-5.669,0.622-8.623c-1.796-6.192-7.366-9.689-12.032-13.691c-29.741,26.126-60.474,54.025-91.512,83.453
		c8.71-5.124,15.897-3.602,24.914-6.078C778.494,357.153,780.822,349.821,791.525,348.512z M749.975,613.187
		c-0.063-0.571-0.198-1.105-0.364-1.623c0.267-2.152-0.154-3.864-1.087-5.246c-0.503-1.903-1.662-3.613-3.497-4.524
		c-1.509-0.749-3.117-0.893-4.761-0.844c-0.614-0.789-1.459-1.46-2.341-1.923c-2.604-1.365-5.572-1.773-8.164-3.308
		c-3.389-2.007-6.006-4.818-8.115-8.106c-0.169-0.264-0.399-0.399-0.641-0.453c-0.056-0.199-0.131-0.381-0.183-0.585
		c-0.289-1.132-2.098-0.914-2.057,0.278c0.095,2.796,0.913,5.474,2.225,7.859c-0.363,0.781-0.36,1.724,0.293,2.69
		c0.421,0.622,0.893,1.156,1.363,1.695c0.17,1.692,0.679,3.316,1.787,4.781c1.01,1.336,2.269,2.064,3.648,2.944
		c1.197,0.762,2.125,1.553,2.989,2.408c1.143,4.197,4.642,8.527,7.568,10.163C743.332,622.016,750.649,619.303,749.975,613.187z
		 M556.103,715.833c-1.479-4.684-0.074-10.479-0.435-15.331c-0.315-4.234-2.166-6.402-3.365-10.182
		c-3.018-9.515-0.155-14.852-1.785-23.092c-1.363-6.888-5.523-12.751-6.601-19.941c-0.923-6.153-0.522-11.554,0.698-16.586
		c1.322-2.168,2.633-4.331,3.481-6.548c1.382-3.613,2.34-7.089,3.575-10.453c1.761-3.277,3.642-6.59,5.483-10.062
		c2.241-2.9,4.267-5.116,5.68-9.063c0.386-1.081,0.695-2.164,0.935-3.248c0.697-0.737,1.373-1.5,2.094-2.204
		c1.524-1.485,3.17-3.262,5.5-3.34c1.055-0.035,2.105,0.262,3.121,0.713c1.277,0.914,2.564,1.695,3.815,2.245
		c2.993,2.058,6.216,3.876,9.785,5.366c1.378,0.575,2.537-0.837,2.652-2.019c0.611-6.313-5.756-11.811-9.715-16.006
		c-1.963-2.081-4.387-4.08-6.83-6.141c-0.968-1.426-1.658-2.998-1.732-4.686c-0.142-3.229,2.541-4.644,3.729-7.464
		c1.89-4.489,0.59-9.311-2.762-12.683c-0.326-0.328-0.673-0.549-1.023-0.741c-29.163,33.522-57.362,68.008-83.908,103.226
		c6.937,9.21,33.395,42.823,72.588,74.556c-0.08-0.155-0.149-0.314-0.275-0.457C559.1,719.778,557.543,717.829,556.103,715.833z"/>
	<path d="M1120.074,50.72c-1.426-0.963-3.288-0.96-4.709,0.008c-3.874,2.639-390.178,267.776-635.279,594.112
		c-28.271,29.835-59.549,57.843-89.798,84.926l-3.237,2.898c-24.707,22.127-51.096,43.543-76.618,64.255
		c-40.617,32.961-82.617,67.042-119.374,105.189c-44.301,45.973-82.08,92.657-112.287,138.755c-0.453,0.693-0.693,1.505-0.684,2.334
		c0.025,2.596,0.984,63.893,36.617,92.575c11.766,9.47,25.901,14.225,42.193,14.225c6.427,0,13.186-0.739,20.271-2.222
		c1.17-0.245,2.181-0.979,2.776-2.021c0.3-0.521,30.419-52.552,79.784-86.165c0.15-0.104,0.338-0.256,0.474-0.376l0.769-0.657
		c21.059-17.939,128.173-112.467,171.891-214.286c0.458-0.701,0.894-1.587,1.434-2.683c20.082-40.841,47.148-56.533,66.32-62.508
		c31.137-9.696,67.879-2.893,109.402,20.311c2.337,1.17,4.376,2.162,36.645-19.736l-0.004-0.005
		c0.012-0.008,0.027-0.011,0.039-0.019c0.346-0.24,0.652-0.529,0.908-0.854c0.442-0.477,1.767-1.805,3.888-3.94
		c93.83-94.476,405.054-425.589,470.318-719.743C1122.184,53.419,1121.494,51.685,1120.074,50.72z M435.712,753.674
		c0,8.656-7.017,15.672-15.673,15.672c-8.655,0-15.672-7.017-15.672-15.672s7.017-15.672,15.672-15.672
		C428.695,738.002,435.712,745.019,435.712,753.674z M498.125,771.085c-2.579,0.804-5.289,1.769-8.099,2.925l1.271-1.103
		l-59.893-68.983c17.571-16.126,34.955-32.704,51.456-49.903c13.586,17.763,72.393,90.073,152.504,123.122
		c-9.638,6.368-19.339,12.42-22.881,14.044C569.633,767.556,531.17,760.797,498.125,771.085z M645.551,768.936
		c-0.927,0.933-1.693,1.707-2.331,2.356c-30.945-12.013-58.798-30.245-82.137-49.142c-39.193-31.734-65.652-65.346-72.588-74.556
		c26.546-35.218,54.745-69.704,83.908-103.226C627.775,480.72,686.655,420.58,744.514,365.72
		c31.038-29.429,61.771-57.328,91.512-83.453c28.76-25.264,56.578-48.853,82.833-70.531c33.805-27.912,65.009-52.656,92.251-73.695
		c0.273-0.211,0.557-0.432,0.83-0.642c47.956-37.015,83.528-62.49,99.248-73.552c-1.98,8.212-4.172,16.454-6.519,24.713
		c-4.547,16.008-9.773,32.094-15.585,48.216c-7.993,22.17-17.097,44.404-27.148,66.592c-11.599,25.604-24.439,51.142-38.227,76.443
		c-5.362,9.84-10.856,19.646-16.487,29.404c-15.314,26.537-31.56,52.726-48.384,78.368c-1.729,2.636-3.47,5.261-5.211,7.885
		c-6.314,9.515-12.7,18.951-19.147,28.297c-1.935,2.806-3.875,5.603-5.821,8.393c-0.507,0.727-1.016,1.452-1.524,2.178
		c-34.957,49.979-71.365,97.212-106.416,140.034c-1.547,1.89-3.095,3.784-4.636,5.656c-26.483,32.174-52.1,61.761-75.623,88.036
		C700.95,712.194,667.354,746.984,645.551,768.936z"/>
</g>
</svg>
